<svg width="135" height="83" viewBox="0 0 135 83" fill="none" xmlns="http://www.w3.org/2000/svg">
<path d="M30.855 0.184375C30.67 -0.884964 22.8803 2.80637 16.139 8.42493C11.4084 7.43413 4.97555 6.00835 4.56848 6.84207C4.16142 7.67579 9.06471 9.47615 11.7538 12.9198C6.81968 19.3358 3.00807 29.0142 4.0134 29.564C4.58082 29.8721 8.21973 22.1753 16.1698 16.8769C20.0308 18.3329 24.1878 21.9155 25.2363 21.7101C26.2848 21.5047 22.6952 15.4934 20.3515 11.3067C24.5825 5.10817 30.9969 1.00601 30.855 0.184375ZM15.3557 6.82999C16.5399 6.93269 17.6378 5.82106 17.8228 4.35298C18.0078 2.88491 17.1628 1.61016 15.9725 1.50746C14.7821 1.40475 13.6905 2.52242 13.5054 3.9905C13.3204 5.45858 14.1715 6.75748 15.3557 6.85415V6.82999Z" fill="#ED7E24"/>
<path d="M63.254 7.06483C62.3165 5.98945 51.776 8.15834 44.8498 11.7953C38.787 10.6897 31.5461 9.43309 31.1699 10.6535C30.7937 11.8738 35.5674 12.2847 38.9597 15.7404C29.2826 23.117 22.5907 31.5569 24.1573 31.8711C26.0693 32.2517 32.3417 23.8057 43.5175 19.9029C50.8632 23.3647 54.9647 30.7413 56.7163 29.3578C57.7895 28.506 53.6325 21.0569 50.7707 15.4625C56.1612 9.2458 64.6294 8.65374 63.254 7.06483ZM43.9431 10.3997C45.1273 10.4722 46.1881 9.33643 46.3053 7.86231C46.4225 6.38819 45.5652 5.1376 44.3749 5.07115C43.1845 5.00469 42.1298 6.13445 42.0065 7.60252C41.8831 9.0706 42.7528 10.3031 43.9431 10.3997Z" fill="white"/>
<path d="M79.6847 16.3879C83.2126 11.887 88.56 9.92351 88.6525 8.67293C88.7142 7.77275 81.4672 9.4704 73.7267 15.101C65.826 14.9138 58.0362 20.4598 58.0547 21.3419C58.0979 22.9972 61.7553 18.8347 68.9406 19.9282C65.6163 25.1722 64.4321 32.5609 65.3202 32.8025C66.3687 33.0804 69.4155 24.9184 75.7621 21.1365C90.8975 22.2541 96.985 31.9688 97.5956 30.1322C98.0767 28.6762 92.5319 20.8948 79.6847 16.3879ZM72.7769 13.7659C73.9611 13.8505 75.0405 12.7268 75.1823 11.2587C75.3242 9.7906 74.473 8.52189 73.2888 8.44335C72.1047 8.36481 71.0253 9.48249 70.8835 10.9506C70.7416 12.4186 71.5927 13.6813 72.7769 13.7659Z" fill="#ED7E24"/>
<path d="M129.319 32.7191C124.477 32.7795 120.814 36.3439 118.273 41.1771C115.441 40.0864 112.415 39.5586 109.373 39.6245C98.0798 39.6245 91.4003 46.403 91.4003 52.2149C91.4003 54.2327 93.1334 55.5316 95.2736 55.5316C95.9583 55.5678 96.6374 55.3925 97.215 55.0305C97.7926 54.6685 98.2397 54.1379 98.4931 53.5138C100.72 49.2304 102.286 46.4815 109.373 46.4815C116.459 46.4815 119.013 49.3875 119.013 55.1994V57.6159C119.013 57.6159 112.999 56.4076 109.453 56.4076C98.3512 56.4076 90.6602 60.691 90.6602 70.1339C90.6602 76.997 95.8533 82.0053 104.18 82.0053C111.846 82.0053 115.053 79.0994 115.053 76.568C115.053 74.8764 113.986 73.2633 112.173 73.2633C111.189 73.3192 110.232 73.5941 109.373 74.0669C107.731 74.7549 105.965 75.1124 104.18 75.1181C100.72 75.1181 98.6288 73.2633 98.6288 70.1097C98.6288 65.7477 101.848 63.0895 109.262 63.0895C112.538 63.1548 115.799 63.5598 118.988 64.2978V72.049C118.988 77.3776 120.709 81.4978 125.902 81.4978C128.295 81.4978 130.028 80.2171 130.028 78.1871C130.028 74.4052 126.988 75.6799 126.988 70.1882V55.2054C126.988 49.901 125.137 45.7324 121.56 43.05C123.989 41.7746 126.712 41.1357 129.467 41.1952C135.807 41.3704 136.504 32.6586 129.319 32.7191Z" fill="#ED7E24"/>
<path d="M84.2252 32.7191C79.3836 32.7795 75.7139 36.3439 73.179 41.1771C70.3467 40.0868 67.3214 39.5591 64.2791 39.6245C52.9861 39.6245 46.3065 46.403 46.3065 52.2149C46.3065 54.2327 48.0335 55.5316 50.1798 55.5316C50.8646 55.5678 51.5436 55.3925 52.1212 55.0305C52.6989 54.6685 53.1459 54.1379 53.3993 53.5138C55.6197 49.2304 57.1863 46.4815 64.2791 46.4815C71.3719 46.4815 73.9191 49.3875 73.9191 55.1994V57.6159C73.9191 57.6159 67.9056 56.4076 64.3592 56.4076C53.2575 56.4076 45.5664 60.691 45.5664 70.1339C45.5664 76.997 50.7596 82.0053 59.0859 82.0053C66.7461 82.0053 69.9595 79.0994 69.9595 76.568C69.9595 74.8764 68.8925 73.2633 67.0792 73.2633C66.0956 73.3192 65.138 73.5941 64.2791 74.0669C62.6373 74.7541 60.8713 75.1116 59.0859 75.1181C55.6197 75.1181 53.535 73.2633 53.535 70.1097C53.535 65.7477 56.7484 63.0895 64.168 63.0895C67.4446 63.1548 70.7049 63.5598 73.8944 64.2978V72.049C73.8944 77.3776 75.6152 81.4978 80.8084 81.4978C83.2014 81.4978 84.9284 80.2171 84.9284 78.1871C84.9284 74.4052 81.8877 75.6799 81.8877 70.1882V55.2054C81.8877 49.901 80.0374 45.7324 76.4663 43.05C78.8945 41.7738 81.6184 41.1348 84.3733 41.1952C90.7075 41.3704 91.4105 32.6586 84.2252 32.7191Z" fill="#ED7E24"/>
<path d="M39.1628 32.7191C34.3211 32.7795 30.6514 36.3439 28.1165 41.1771C25.2844 40.0864 22.259 39.5586 19.2166 39.6245C7.92359 39.6245 1.24402 46.403 1.24402 52.2149C1.24402 54.2327 2.97714 55.5316 5.11732 55.5316C5.80207 55.5678 6.48113 55.3925 7.05875 55.0305C7.63637 54.6685 8.08341 54.1379 8.33682 53.5138C10.5572 49.2304 12.1238 46.4815 19.2166 46.4815C26.3094 46.4815 28.8566 49.3875 28.8566 55.1994V57.6159C28.8566 57.6159 22.8431 56.4076 19.2967 56.4076C8.16413 56.4076 0.503906 60.691 0.503906 70.1339C0.503906 76.997 5.69708 82.0053 14.0234 82.0053C21.6836 82.0053 24.897 79.0994 24.897 76.568C24.897 74.8764 23.83 73.2633 22.0167 73.2633C21.0331 73.3192 20.0755 73.5941 19.2166 74.0669C17.5748 74.7541 15.8088 75.1116 14.0234 75.1181C10.5572 75.1181 8.47251 73.2633 8.47251 70.1097C8.47251 65.7477 11.6859 63.0895 19.1056 63.0895C22.3821 63.1548 25.6424 63.5598 28.8319 64.2978V72.049C28.8319 77.3776 30.5527 81.4978 35.7459 81.4978C38.1389 81.4978 39.8659 80.2171 39.8659 78.1871C39.8659 74.4052 36.8252 75.6799 36.8252 70.1882V55.2054C36.8252 49.901 34.9749 45.7324 31.4039 43.05C33.832 41.7738 36.5559 41.1348 39.3108 41.1952C45.645 41.3704 46.3481 32.6586 39.1628 32.7191Z" fill="#ED7E24"/>
</svg>
